<svg width="130" height="28" viewBox="0 0 130 28" fill="none" xmlns="http://www.w3.org/2000/svg">
<rect width="24" height="24" rx="4" fill="#F2F2F2"/>
<rect x="3" y="2" width="18" height="18" rx="3" stroke="#101010" stroke-width="2"/>
<path d="M7.53711 14V5.36328H9.21289V14H7.53711ZM5.85547 14V12.5352H10.8945V14H5.85547ZM5.85547 6.82812V5.36328H10.8945V6.82812H5.85547Z" fill="#101010"/>
<rect x="12" y="9" width="18" height="18" rx="9" fill="#101010"/>
<rect x="12" y="9" width="18" height="18" rx="9" stroke="#F2F2F2" stroke-width="2"/>
<path d="M20.043 23.5V19.4805L16.9736 13.4238H19.1543L20.0977 15.543L20.9727 17.5869H21.0273L21.9023 15.543L22.8457 13.4238H25.0264L21.957 19.4805V23.5H20.043Z" fill="#F2F2F2"/>
<mask id="path-6-outside-1_129_494" maskUnits="userSpaceOnUse" x="34" y="5" width="96" height="14" fill="black">
<rect fill="white" x="34" y="5" width="96" height="14"/>
<path d="M35.334 13.2402V12.1738H41.541V13.2402H35.334ZM53.5723 17V6.92383H54.8027V17H53.5723ZM51.4805 17V15.9062H56.8945V17H51.4805ZM51.4805 8.01758V6.92383H56.8945V8.01758H51.4805ZM59.1914 17V9.75391H60.3535V10.6426H60.627L60.1484 11.1484C60.2943 10.7109 60.5814 10.3509 61.0098 10.0684C61.4427 9.78581 61.9486 9.64453 62.5273 9.64453C63.2747 9.64453 63.8672 9.89062 64.3047 10.3828C64.7422 10.875 64.9609 11.5312 64.9609 12.3516V17H63.7852V12.5977C63.7852 12.0371 63.637 11.5882 63.3408 11.251C63.0492 10.9092 62.6458 10.7383 62.1309 10.7383C61.7891 10.7383 61.486 10.8158 61.2217 10.9707C60.9574 11.1211 60.7477 11.3353 60.5928 11.6133C60.4424 11.8913 60.3672 12.2194 60.3672 12.5977V17H59.1914ZM69.377 17L66.4648 9.75391H67.7773L69.2539 13.8965L69.9102 15.6055H69.9648L70.6211 13.8965L72.1113 9.75391H73.4102L70.498 17H69.377ZM78.0449 17.1094C77.3796 17.1094 76.7917 16.9521 76.2812 16.6377C75.7754 16.3187 75.3789 15.8789 75.0918 15.3184C74.8092 14.7533 74.668 14.1016 74.668 13.3633C74.668 12.6296 74.8047 11.9847 75.0781 11.4287C75.3516 10.8682 75.7321 10.4307 76.2197 10.1162C76.7074 9.80176 77.2702 9.64453 77.9082 9.64453C78.5052 9.64453 79.0316 9.78581 79.4873 10.0684C79.9476 10.3464 80.3076 10.736 80.5674 11.2373C80.8271 11.734 80.957 12.3105 80.957 12.9668C80.957 13.1035 80.9502 13.2539 80.9365 13.418C80.9229 13.582 80.9023 13.7233 80.875 13.8418H75.5703V12.8848H79.8086C79.8086 12.4609 79.7266 12.0895 79.5625 11.7705C79.3984 11.4469 79.1729 11.194 78.8857 11.0117C78.5986 10.8294 78.2682 10.7383 77.8945 10.7383C77.4844 10.7383 77.1198 10.8499 76.8008 11.0732C76.4863 11.292 76.238 11.5996 76.0557 11.9961C75.8779 12.388 75.7891 12.8438 75.7891 13.3633C75.7891 13.8874 75.8848 14.3499 76.0762 14.751C76.2721 15.1475 76.541 15.4574 76.8828 15.6807C77.2292 15.904 77.6257 16.0156 78.0723 16.0156C78.3822 16.0156 78.7035 15.9518 79.0361 15.8242C79.3734 15.6921 79.6719 15.5143 79.9316 15.291L80.3691 16.3438C80.082 16.5625 79.7243 16.7448 79.2959 16.8906C78.8721 17.0365 78.4551 17.1094 78.0449 17.1094ZM82.8164 17V9.75391H83.9785V10.6426H84.252L83.7734 11.1484C83.9193 10.7109 84.2064 10.3509 84.6348 10.0684C85.0677 9.78581 85.5736 9.64453 86.1523 9.64453C86.8997 9.64453 87.4922 9.89062 87.9297 10.3828C88.3672 10.875 88.5859 11.5312 88.5859 12.3516V17H87.4102V12.5977C87.4102 12.0371 87.262 11.5882 86.9658 11.251C86.6742 10.9092 86.2708 10.7383 85.7559 10.7383C85.4141 10.7383 85.111 10.8158 84.8467 10.9707C84.5824 11.1211 84.3727 11.3353 84.2178 11.6133C84.0674 11.8913 83.9922 12.2194 83.9922 12.5977V17H82.8164ZM94.6289 17.1094C94.1322 17.1094 93.6878 17.0091 93.2959 16.8086C92.904 16.6035 92.5941 16.321 92.3662 15.9609C92.1429 15.6009 92.0312 15.1862 92.0312 14.7168V7.42969H93.207V14.5938C93.207 15.0085 93.3483 15.3503 93.6309 15.6191C93.918 15.8835 94.2689 16.0156 94.6836 16.0156C94.9707 16.0156 95.2555 15.9564 95.5381 15.8379C95.8252 15.7148 96.0736 15.569 96.2832 15.4004L96.7344 16.4805C96.4336 16.6719 96.1009 16.8245 95.7363 16.9385C95.3763 17.0524 95.0072 17.1094 94.6289 17.1094ZM90.3359 10.8203V9.75391H96.2832V10.8203H90.3359ZM100.754 17.1094C100.307 17.1094 99.904 17.0228 99.5439 16.8496C99.1839 16.6764 98.8991 16.4303 98.6895 16.1113C98.4798 15.7878 98.375 15.4004 98.375 14.9492C98.375 14.5117 98.4935 14.1152 98.7305 13.7598C98.9674 13.4043 99.3298 13.1217 99.8174 12.9121C100.305 12.7025 100.927 12.5977 101.684 12.5977H103.188V13.541H101.766C101.41 13.541 101.059 13.5843 100.713 13.6709C100.371 13.7575 100.086 13.9033 99.8584 14.1084C99.6351 14.3135 99.5234 14.5938 99.5234 14.9492C99.5234 15.1908 99.585 15.3981 99.708 15.5713C99.8311 15.7399 99.9951 15.8698 100.2 15.9609C100.41 16.0521 100.64 16.0977 100.891 16.0977C101.191 16.0977 101.501 16.0316 101.82 15.8994C102.144 15.7627 102.415 15.5667 102.634 15.3115C102.857 15.0518 102.969 14.735 102.969 14.3613V13.6094L102.941 13.1855V12.3789C102.941 12.2604 102.932 12.11 102.914 11.9277C102.896 11.7409 102.841 11.5563 102.75 11.374C102.663 11.1917 102.515 11.0391 102.306 10.916C102.096 10.7884 101.802 10.7246 101.424 10.7246C101.201 10.7246 100.959 10.7542 100.699 10.8135C100.439 10.8682 100.187 10.9456 99.9404 11.0459C99.6943 11.1462 99.4779 11.2624 99.291 11.3945L98.8535 10.3418C99.0951 10.2005 99.3639 10.0775 99.6602 9.97266C99.9609 9.86328 100.271 9.77897 100.59 9.71973C100.913 9.66048 101.228 9.63086 101.533 9.63086C102.189 9.63086 102.7 9.75846 103.064 10.0137C103.434 10.2689 103.691 10.6038 103.837 11.0186C103.987 11.4287 104.062 11.873 104.062 12.3516V14.8945C104.062 15.1999 104.092 15.4414 104.151 15.6191C104.215 15.7969 104.331 15.9199 104.5 15.9883L104.637 16.043L104.199 17.1094L104.008 17.0273C103.753 16.918 103.534 16.7562 103.352 16.542C103.169 16.3278 103.078 16.1159 103.078 15.9062L103.311 15.9883H102.859L103.16 15.7969C102.982 16.1569 102.679 16.4668 102.251 16.7266C101.827 16.9818 101.328 17.1094 100.754 17.1094ZM106.906 17V9.75391H108.082V10.8477H108.314L107.904 11.4219C107.986 11.0846 108.139 10.7816 108.362 10.5127C108.586 10.2438 108.852 10.0319 109.162 9.87695C109.477 9.72201 109.809 9.64453 110.16 9.64453C110.538 9.64453 110.882 9.70605 111.192 9.8291C111.502 9.95215 111.773 10.1367 112.006 10.3828C112.238 10.6289 112.425 10.9388 112.566 11.3125L111.473 11.7637C111.336 11.4401 111.131 11.194 110.857 11.0254C110.584 10.8522 110.256 10.7656 109.873 10.7656C109.563 10.7656 109.271 10.8568 108.998 11.0391C108.725 11.2168 108.504 11.4652 108.335 11.7842C108.166 12.1032 108.082 12.4701 108.082 12.8848V17H106.906ZM116.969 17V9.75391H118.145V17H116.969ZM114.727 10.8203V9.75391H118.145V10.8203H114.727ZM117.584 8.5918C117.333 8.5918 117.121 8.50749 116.948 8.33887C116.78 8.16569 116.695 7.95378 116.695 7.70312C116.695 7.45247 116.78 7.24284 116.948 7.07422C117.121 6.90104 117.333 6.81445 117.584 6.81445C117.835 6.81445 118.044 6.90104 118.213 7.07422C118.386 7.24284 118.473 7.45247 118.473 7.70312C118.473 7.95378 118.386 8.16569 118.213 8.33887C118.044 8.50749 117.835 8.5918 117.584 8.5918ZM125.062 17.1094C124.424 17.1094 123.864 16.9521 123.381 16.6377C122.902 16.3232 122.529 15.8857 122.26 15.3252C121.995 14.7646 121.863 14.1152 121.863 13.377C121.863 12.6387 121.995 11.9893 122.26 11.4287C122.529 10.8636 122.902 10.4238 123.381 10.1094C123.864 9.79036 124.424 9.63086 125.062 9.63086C125.701 9.63086 126.259 9.79036 126.737 10.1094C127.22 10.4238 127.594 10.8636 127.858 11.4287C128.127 11.9893 128.262 12.6387 128.262 13.377C128.262 14.1152 128.127 14.7646 127.858 15.3252C127.594 15.8857 127.22 16.3232 126.737 16.6377C126.259 16.9521 125.701 17.1094 125.062 17.1094ZM125.062 16.0156C125.482 16.0156 125.842 15.9085 126.143 15.6943C126.448 15.4756 126.68 15.1702 126.84 14.7783C127.004 14.3818 127.086 13.9147 127.086 13.377C127.086 12.8392 127.004 12.3721 126.84 11.9756C126.68 11.5791 126.448 11.2715 126.143 11.0527C125.842 10.834 125.482 10.7246 125.062 10.7246C124.643 10.7246 124.281 10.834 123.976 11.0527C123.675 11.2715 123.442 11.5791 123.278 11.9756C123.119 12.3721 123.039 12.8392 123.039 13.377C123.039 13.9147 123.119 14.3818 123.278 14.7783C123.442 15.1702 123.675 15.4756 123.976 15.6943C124.281 15.9085 124.643 16.0156 125.062 16.0156Z"/>
</mask>
<path d="M35.334 13.2402V12.1738H41.541V13.2402H35.334ZM53.5723 17V6.92383H54.8027V17H53.5723ZM51.4805 17V15.9062H56.8945V17H51.4805ZM51.4805 8.01758V6.92383H56.8945V8.01758H51.4805ZM59.1914 17V9.75391H60.3535V10.6426H60.627L60.1484 11.1484C60.2943 10.7109 60.5814 10.3509 61.0098 10.0684C61.4427 9.78581 61.9486 9.64453 62.5273 9.64453C63.2747 9.64453 63.8672 9.89062 64.3047 10.3828C64.7422 10.875 64.9609 11.5312 64.9609 12.3516V17H63.7852V12.5977C63.7852 12.0371 63.637 11.5882 63.3408 11.251C63.0492 10.9092 62.6458 10.7383 62.1309 10.7383C61.7891 10.7383 61.486 10.8158 61.2217 10.9707C60.9574 11.1211 60.7477 11.3353 60.5928 11.6133C60.4424 11.8913 60.3672 12.2194 60.3672 12.5977V17H59.1914ZM69.377 17L66.4648 9.75391H67.7773L69.2539 13.8965L69.9102 15.6055H69.9648L70.6211 13.8965L72.1113 9.75391H73.4102L70.498 17H69.377ZM78.0449 17.1094C77.3796 17.1094 76.7917 16.9521 76.2812 16.6377C75.7754 16.3187 75.3789 15.8789 75.0918 15.3184C74.8092 14.7533 74.668 14.1016 74.668 13.3633C74.668 12.6296 74.8047 11.9847 75.0781 11.4287C75.3516 10.8682 75.7321 10.4307 76.2197 10.1162C76.7074 9.80176 77.2702 9.64453 77.9082 9.64453C78.5052 9.64453 79.0316 9.78581 79.4873 10.0684C79.9476 10.3464 80.3076 10.736 80.5674 11.2373C80.8271 11.734 80.957 12.3105 80.957 12.9668C80.957 13.1035 80.9502 13.2539 80.9365 13.418C80.9229 13.582 80.9023 13.7233 80.875 13.8418H75.5703V12.8848H79.8086C79.8086 12.4609 79.7266 12.0895 79.5625 11.7705C79.3984 11.4469 79.1729 11.194 78.8857 11.0117C78.5986 10.8294 78.2682 10.7383 77.8945 10.7383C77.4844 10.7383 77.1198 10.8499 76.8008 11.0732C76.4863 11.292 76.238 11.5996 76.0557 11.9961C75.8779 12.388 75.7891 12.8438 75.7891 13.3633C75.7891 13.8874 75.8848 14.3499 76.0762 14.751C76.2721 15.1475 76.541 15.4574 76.8828 15.6807C77.2292 15.904 77.6257 16.0156 78.0723 16.0156C78.3822 16.0156 78.7035 15.9518 79.0361 15.8242C79.3734 15.6921 79.6719 15.5143 79.9316 15.291L80.3691 16.3438C80.082 16.5625 79.7243 16.7448 79.2959 16.8906C78.8721 17.0365 78.4551 17.1094 78.0449 17.1094ZM82.8164 17V9.75391H83.9785V10.6426H84.252L83.7734 11.1484C83.9193 10.7109 84.2064 10.3509 84.6348 10.0684C85.0677 9.78581 85.5736 9.64453 86.1523 9.64453C86.8997 9.64453 87.4922 9.89062 87.9297 10.3828C88.3672 10.875 88.5859 11.5312 88.5859 12.3516V17H87.4102V12.5977C87.4102 12.0371 87.262 11.5882 86.9658 11.251C86.6742 10.9092 86.2708 10.7383 85.7559 10.7383C85.4141 10.7383 85.111 10.8158 84.8467 10.9707C84.5824 11.1211 84.3727 11.3353 84.2178 11.6133C84.0674 11.8913 83.9922 12.2194 83.9922 12.5977V17H82.8164ZM94.6289 17.1094C94.1322 17.1094 93.6878 17.0091 93.2959 16.8086C92.904 16.6035 92.5941 16.321 92.3662 15.9609C92.1429 15.6009 92.0312 15.1862 92.0312 14.7168V7.42969H93.207V14.5938C93.207 15.0085 93.3483 15.3503 93.6309 15.6191C93.918 15.8835 94.2689 16.0156 94.6836 16.0156C94.9707 16.0156 95.2555 15.9564 95.5381 15.8379C95.8252 15.7148 96.0736 15.569 96.2832 15.4004L96.7344 16.4805C96.4336 16.6719 96.1009 16.8245 95.7363 16.9385C95.3763 17.0524 95.0072 17.1094 94.6289 17.1094ZM90.3359 10.8203V9.75391H96.2832V10.8203H90.3359ZM100.754 17.1094C100.307 17.1094 99.904 17.0228 99.5439 16.8496C99.1839 16.6764 98.8991 16.4303 98.6895 16.1113C98.4798 15.7878 98.375 15.4004 98.375 14.9492C98.375 14.5117 98.4935 14.1152 98.7305 13.7598C98.9674 13.4043 99.3298 13.1217 99.8174 12.9121C100.305 12.7025 100.927 12.5977 101.684 12.5977H103.188V13.541H101.766C101.41 13.541 101.059 13.5843 100.713 13.6709C100.371 13.7575 100.086 13.9033 99.8584 14.1084C99.6351 14.3135 99.5234 14.5938 99.5234 14.9492C99.5234 15.1908 99.585 15.3981 99.708 15.5713C99.8311 15.7399 99.9951 15.8698 100.2 15.9609C100.41 16.0521 100.64 16.0977 100.891 16.0977C101.191 16.0977 101.501 16.0316 101.82 15.8994C102.144 15.7627 102.415 15.5667 102.634 15.3115C102.857 15.0518 102.969 14.735 102.969 14.3613V13.6094L102.941 13.1855V12.3789C102.941 12.2604 102.932 12.11 102.914 11.9277C102.896 11.7409 102.841 11.5563 102.75 11.374C102.663 11.1917 102.515 11.0391 102.306 10.916C102.096 10.7884 101.802 10.7246 101.424 10.7246C101.201 10.7246 100.959 10.7542 100.699 10.8135C100.439 10.8682 100.187 10.9456 99.9404 11.0459C99.6943 11.1462 99.4779 11.2624 99.291 11.3945L98.8535 10.3418C99.0951 10.2005 99.3639 10.0775 99.6602 9.97266C99.9609 9.86328 100.271 9.77897 100.59 9.71973C100.913 9.66048 101.228 9.63086 101.533 9.63086C102.189 9.63086 102.7 9.75846 103.064 10.0137C103.434 10.2689 103.691 10.6038 103.837 11.0186C103.987 11.4287 104.062 11.873 104.062 12.3516V14.8945C104.062 15.1999 104.092 15.4414 104.151 15.6191C104.215 15.7969 104.331 15.9199 104.5 15.9883L104.637 16.043L104.199 17.1094L104.008 17.0273C103.753 16.918 103.534 16.7562 103.352 16.542C103.169 16.3278 103.078 16.1159 103.078 15.9062L103.311 15.9883H102.859L103.16 15.7969C102.982 16.1569 102.679 16.4668 102.251 16.7266C101.827 16.9818 101.328 17.1094 100.754 17.1094ZM106.906 17V9.75391H108.082V10.8477H108.314L107.904 11.4219C107.986 11.0846 108.139 10.7816 108.362 10.5127C108.586 10.2438 108.852 10.0319 109.162 9.87695C109.477 9.72201 109.809 9.64453 110.16 9.64453C110.538 9.64453 110.882 9.70605 111.192 9.8291C111.502 9.95215 111.773 10.1367 112.006 10.3828C112.238 10.6289 112.425 10.9388 112.566 11.3125L111.473 11.7637C111.336 11.4401 111.131 11.194 110.857 11.0254C110.584 10.8522 110.256 10.7656 109.873 10.7656C109.563 10.7656 109.271 10.8568 108.998 11.0391C108.725 11.2168 108.504 11.4652 108.335 11.7842C108.166 12.1032 108.082 12.4701 108.082 12.8848V17H106.906ZM116.969 17V9.75391H118.145V17H116.969ZM114.727 10.8203V9.75391H118.145V10.8203H114.727ZM117.584 8.5918C117.333 8.5918 117.121 8.50749 116.948 8.33887C116.78 8.16569 116.695 7.95378 116.695 7.70312C116.695 7.45247 116.78 7.24284 116.948 7.07422C117.121 6.90104 117.333 6.81445 117.584 6.81445C117.835 6.81445 118.044 6.90104 118.213 7.07422C118.386 7.24284 118.473 7.45247 118.473 7.70312C118.473 7.95378 118.386 8.16569 118.213 8.33887C118.044 8.50749 117.835 8.5918 117.584 8.5918ZM125.062 17.1094C124.424 17.1094 123.864 16.9521 123.381 16.6377C122.902 16.3232 122.529 15.8857 122.26 15.3252C121.995 14.7646 121.863 14.1152 121.863 13.377C121.863 12.6387 121.995 11.9893 122.26 11.4287C122.529 10.8636 122.902 10.4238 123.381 10.1094C123.864 9.79036 124.424 9.63086 125.062 9.63086C125.701 9.63086 126.259 9.79036 126.737 10.1094C127.22 10.4238 127.594 10.8636 127.858 11.4287C128.127 11.9893 128.262 12.6387 128.262 13.377C128.262 14.1152 128.127 14.7646 127.858 15.3252C127.594 15.8857 127.22 16.3232 126.737 16.6377C126.259 16.9521 125.701 17.1094 125.062 17.1094ZM125.062 16.0156C125.482 16.0156 125.842 15.9085 126.143 15.6943C126.448 15.4756 126.68 15.1702 126.84 14.7783C127.004 14.3818 127.086 13.9147 127.086 13.377C127.086 12.8392 127.004 12.3721 126.84 11.9756C126.68 11.5791 126.448 11.2715 126.143 11.0527C125.842 10.834 125.482 10.7246 125.062 10.7246C124.643 10.7246 124.281 10.834 123.976 11.0527C123.675 11.2715 123.442 11.5791 123.278 11.9756C123.119 12.3721 123.039 12.8392 123.039 13.377C123.039 13.9147 123.119 14.3818 123.278 14.7783C123.442 15.1702 123.675 15.4756 123.976 15.6943C124.281 15.9085 124.643 16.0156 125.062 16.0156Z" fill="#F2F2F2"/>
<path d="M35.334 13.2402H34.334V14.2402H35.334V13.2402ZM35.334 12.1738V11.1738H34.334V12.1738H35.334ZM41.541 12.1738H42.541V11.1738H41.541V12.1738ZM41.541 13.2402V14.2402H42.541V13.2402H41.541ZM36.334 13.2402V12.1738H34.334V13.2402H36.334ZM35.334 13.1738H41.541V11.1738H35.334V13.1738ZM40.541 12.1738V13.2402H42.541V12.1738H40.541ZM41.541 12.2402H35.334V14.2402H41.541V12.2402ZM53.5723 17H52.5723V18H53.5723V17ZM53.5723 6.92383V5.92383H52.5723V6.92383H53.5723ZM54.8027 6.92383H55.8027V5.92383H54.8027V6.92383ZM54.8027 17V18H55.8027V17H54.8027ZM51.4805 17H50.4805V18H51.4805V17ZM51.4805 15.9062V14.9062H50.4805V15.9062H51.4805ZM56.8945 15.9062H57.8945V14.9062H56.8945V15.9062ZM56.8945 17V18H57.8945V17H56.8945ZM51.4805 8.01758H50.4805V9.01758H51.4805V8.01758ZM51.4805 6.92383V5.92383H50.4805V6.92383H51.4805ZM56.8945 6.92383H57.8945V5.92383H56.8945V6.92383ZM56.8945 8.01758V9.01758H57.8945V8.01758H56.8945ZM54.5723 17V6.92383H52.5723V17H54.5723ZM53.5723 7.92383H54.8027V5.92383H53.5723V7.92383ZM53.8027 6.92383V17H55.8027V6.92383H53.8027ZM54.8027 16H53.5723V18H54.8027V16ZM52.4805 17V15.9062H50.4805V17H52.4805ZM51.4805 16.9062H56.8945V14.9062H51.4805V16.9062ZM55.8945 15.9062V17H57.8945V15.9062H55.8945ZM56.8945 16H51.4805V18H56.8945V16ZM52.4805 8.01758V6.92383H50.4805V8.01758H52.4805ZM51.4805 7.92383H56.8945V5.92383H51.4805V7.92383ZM55.8945 6.92383V8.01758H57.8945V6.92383H55.8945ZM56.8945 7.01758H51.4805V9.01758H56.8945V7.01758ZM59.1914 17H58.1914V18H59.1914V17ZM59.1914 9.75391V8.75391H58.1914V9.75391H59.1914ZM60.3535 9.75391H61.3535V8.75391H60.3535V9.75391ZM60.3535 10.6426H59.3535V11.6426H60.3535V10.6426ZM60.627 10.6426L61.3534 11.3298L62.9494 9.64258H60.627V10.6426ZM60.1484 11.1484L59.1998 10.8322L60.8749 11.8356L60.1484 11.1484ZM61.0098 10.0684L60.4632 9.23091L60.4592 9.23359L61.0098 10.0684ZM64.9609 17V18H65.9609V17H64.9609ZM63.7852 17H62.7852V18H63.7852V17ZM63.3408 11.251L62.5801 11.9001L62.5848 11.9055L62.5895 11.9109L63.3408 11.251ZM61.2217 10.9707L61.7162 11.8399L61.7274 11.8334L61.2217 10.9707ZM60.5928 11.6133L59.7192 11.1264L59.7132 11.1375L60.5928 11.6133ZM60.3672 17V18H61.3672V17H60.3672ZM60.1914 17V9.75391H58.1914V17H60.1914ZM59.1914 10.7539H60.3535V8.75391H59.1914V10.7539ZM59.3535 9.75391V10.6426H61.3535V9.75391H59.3535ZM60.3535 11.6426H60.627V9.64258H60.3535V11.6426ZM59.9005 9.95538L59.422 10.4612L60.8749 11.8356L61.3534 11.3298L59.9005 9.95538ZM61.0971 11.4647C61.1641 11.2638 61.2967 11.077 61.5604 10.9031L60.4592 9.23359C59.8661 9.62479 59.4245 10.1581 59.1998 10.8322L61.0971 11.4647ZM61.5563 10.9058C61.8077 10.7417 62.1187 10.6445 62.5273 10.6445V8.64453C61.7785 8.64453 61.0777 8.8299 60.4632 9.23092L61.5563 10.9058ZM62.5273 10.6445C63.0319 10.6445 63.3362 10.7985 63.5573 11.0472L65.0521 9.71845C64.3981 8.98276 63.5176 8.64453 62.5273 8.64453V10.6445ZM63.5573 11.0472C63.7948 11.3144 63.9609 11.7136 63.9609 12.3516H65.9609C65.9609 11.3489 65.6895 10.4356 65.0521 9.71845L63.5573 11.0472ZM63.9609 12.3516V17H65.9609V12.3516H63.9609ZM64.9609 16H63.7852V18H64.9609V16ZM64.7852 17V12.5977H62.7852V17H64.7852ZM64.7852 12.5977C64.7852 11.8569 64.5857 11.1529 64.0921 10.591L62.5895 11.9109C62.6884 12.0235 62.7852 12.2174 62.7852 12.5977H64.7852ZM64.1015 10.6019C63.5909 10.0035 62.8909 9.73828 62.1309 9.73828V11.7383C62.4008 11.7383 62.5074 11.8148 62.5801 11.9001L64.1015 10.6019ZM62.1309 9.73828C61.6323 9.73828 61.1508 9.85307 60.716 10.108L61.7274 11.8334C61.8212 11.7784 61.9458 11.7383 62.1309 11.7383V9.73828ZM60.7272 10.1015C60.2964 10.3466 59.9589 10.6965 59.7193 11.1264L61.4663 12.1001C61.5365 11.9741 61.6183 11.8956 61.7162 11.8399L60.7272 10.1015ZM59.7132 11.1375C59.4696 11.5878 59.3672 12.0858 59.3672 12.5977H61.3672C61.3672 12.353 61.4152 12.1948 61.4723 12.0891L59.7132 11.1375ZM59.3672 12.5977V17H61.3672V12.5977H59.3672ZM60.3672 16H59.1914V18H60.3672V16ZM69.377 17L68.4491 17.3729L68.7011 18H69.377V17ZM66.4648 9.75391V8.75391H64.9852L65.537 10.1268L66.4648 9.75391ZM67.7773 9.75391L68.7193 9.41816L68.4825 8.75391H67.7773V9.75391ZM69.2539 13.8965L68.312 14.2322L68.316 14.2436L68.3204 14.255L69.2539 13.8965ZM69.9102 15.6055L68.9766 15.9639L69.223 16.6055H69.9102V15.6055ZM69.9648 15.6055V16.6055H70.652L70.8984 15.9639L69.9648 15.6055ZM70.6211 13.8965L71.5546 14.255L71.5585 14.245L71.5621 14.235L70.6211 13.8965ZM72.1113 9.75391V8.75391H71.4083L71.1704 9.41541L72.1113 9.75391ZM73.4102 9.75391L74.338 10.1268L74.8898 8.75391H73.4102V9.75391ZM70.498 17V18H71.1739L71.4259 17.3729L70.498 17ZM70.3048 16.6271L67.3927 9.38101L65.537 10.1268L68.4491 17.3729L70.3048 16.6271ZM66.4648 10.7539H67.7773V8.75391H66.4648V10.7539ZM66.8354 10.0897L68.312 14.2322L70.1959 13.5607L68.7193 9.41816L66.8354 10.0897ZM68.3204 14.255L68.9766 15.9639L70.8437 15.247L70.1874 13.538L68.3204 14.255ZM69.9102 16.6055H69.9648V14.6055H69.9102V16.6055ZM70.8984 15.9639L71.5546 14.255L69.6876 13.538L69.0313 15.247L70.8984 15.9639ZM71.5621 14.235L73.0523 10.0924L71.1704 9.41541L69.6801 13.558L71.5621 14.235ZM72.1113 10.7539H73.4102V8.75391H72.1113V10.7539ZM72.4823 9.38101L69.5702 16.6271L71.4259 17.3729L74.338 10.1268L72.4823 9.38101ZM70.498 16H69.377V18H70.498V16ZM76.2812 16.6377L75.7478 17.4836L75.7567 17.4891L76.2812 16.6377ZM75.0918 15.3184L74.1973 15.7656L74.2018 15.7742L75.0918 15.3184ZM75.0781 11.4287L75.9755 11.87L75.9769 11.8671L75.0781 11.4287ZM79.4873 10.0684L78.9603 10.9183L78.9703 10.9244L79.4873 10.0684ZM80.5674 11.2373L79.6795 11.6974L79.6812 11.7007L80.5674 11.2373ZM80.875 13.8418V14.8418H81.6705L81.8494 14.0667L80.875 13.8418ZM75.5703 13.8418H74.5703V14.8418H75.5703V13.8418ZM75.5703 12.8848V11.8848H74.5703V12.8848H75.5703ZM79.8086 12.8848V13.8848H80.8086V12.8848H79.8086ZM79.5625 11.7705L78.6706 12.2227L78.6732 12.2279L79.5625 11.7705ZM76.8008 11.0732L77.3718 11.8942L77.3742 11.8925L76.8008 11.0732ZM76.0557 11.9961L75.1471 11.5784L75.1449 11.5831L76.0557 11.9961ZM76.0762 14.751L75.1736 15.1817L75.1797 15.1941L76.0762 14.751ZM76.8828 15.6807L76.3359 16.5178L76.3409 16.5211L76.8828 15.6807ZM79.0361 15.8242L79.3943 16.7579L79.401 16.7553L79.0361 15.8242ZM79.9316 15.291L80.8551 14.9073L80.3257 13.6335L79.2798 14.5327L79.9316 15.291ZM80.3691 16.3438L80.9752 17.1392L81.5884 16.6719L81.2926 15.96L80.3691 16.3438ZM79.2959 16.8906L78.9736 15.944L78.9705 15.945L79.2959 16.8906ZM78.0449 16.1094C77.5438 16.1094 77.1415 15.9932 76.8058 15.7863L75.7567 17.4891C76.4418 17.9111 77.2153 18.1094 78.0449 18.1094V16.1094ZM76.8147 15.7918C76.4687 15.5737 76.1917 15.2722 75.9818 14.8625L74.2018 15.7742C74.5661 16.4856 75.0821 17.0637 75.7478 17.4835L76.8147 15.7918ZM75.9862 14.8711C75.7839 14.4665 75.668 13.9724 75.668 13.3633H73.668C73.668 14.2307 73.8346 15.04 74.1974 15.7656L75.9862 14.8711ZM75.668 13.3633C75.668 12.7546 75.7809 12.2656 75.9755 11.87L74.1808 10.9874C73.8285 11.7038 73.668 12.5045 73.668 13.3633H75.668ZM75.9769 11.8671C76.1765 11.4579 76.4389 11.1647 76.7617 10.9566L75.6778 9.2758C75.0252 9.69659 74.5266 10.2784 74.1794 10.9903L75.9769 11.8671ZM76.7617 10.9566C77.0718 10.7566 77.4425 10.6445 77.9082 10.6445V8.64453C77.0978 8.64453 76.3429 8.84689 75.6778 9.2758L76.7617 10.9566ZM77.9082 10.6445C78.3408 10.6445 78.6804 10.7447 78.9604 10.9183L80.0142 9.21846C79.3827 8.82693 78.6697 8.64453 77.9082 8.64453V10.6445ZM78.9703 10.9244C79.2648 11.1022 79.5001 11.3512 79.6795 11.6974L81.4553 10.7772C81.1151 10.1209 80.6304 9.5905 80.0043 9.21237L78.9703 10.9244ZM79.6812 11.7007C79.8544 12.0319 79.957 12.4444 79.957 12.9668H81.957C81.957 12.1767 81.7999 11.4362 81.4535 10.7739L79.6812 11.7007ZM79.957 12.9668C79.957 13.0709 79.9518 13.1931 79.94 13.3349L81.9331 13.501C81.9486 13.3147 81.957 13.1361 81.957 12.9668H79.957ZM79.94 13.3349C79.929 13.4667 79.9142 13.5582 79.9006 13.6169L81.8494 14.0667C81.8905 13.8885 81.9167 13.6973 81.9331 13.501L79.94 13.3349ZM80.875 12.8418H75.5703V14.8418H80.875V12.8418ZM76.5703 13.8418V12.8848H74.5703V13.8418H76.5703ZM75.5703 13.8848H79.8086V11.8848H75.5703V13.8848ZM80.8086 12.8848C80.8086 12.3306 80.7007 11.7972 80.4518 11.3132L78.6732 12.2279C78.7524 12.3819 78.8086 12.5913 78.8086 12.8848H80.8086ZM80.4544 11.3183C80.2147 10.8456 79.8707 10.4526 79.4218 10.1675L78.3497 11.8559C78.475 11.9354 78.5822 12.0483 78.6706 12.2227L80.4544 11.3183ZM79.4218 10.1675C78.9587 9.87352 78.4386 9.73828 77.8945 9.73828V11.7383C78.0978 11.7383 78.2385 11.7853 78.3497 11.8559L79.4218 10.1675ZM77.8945 9.73828C77.2908 9.73828 76.7237 9.90657 76.2273 10.254L77.3742 11.8925C77.5159 11.7933 77.678 11.7383 77.8945 11.7383V9.73828ZM76.2297 10.2523C75.7494 10.5865 75.3933 11.0428 75.1471 11.5784L76.9642 12.4138C77.0826 12.1564 77.2233 11.9975 77.3718 11.8941L76.2297 10.2523ZM75.1449 11.5831C74.8975 12.1288 74.7891 12.7303 74.7891 13.3633H76.7891C76.7891 12.9572 76.8584 12.6473 76.9664 12.4091L75.1449 11.5831ZM74.7891 13.3633C74.7891 14.0099 74.9076 14.6241 75.1737 15.1817L76.9787 14.3202C76.862 14.0758 76.7891 13.7648 76.7891 13.3633H74.7891ZM75.1797 15.1941C75.448 15.737 75.8321 16.1887 76.3359 16.5178L77.4298 14.8435C77.25 14.726 77.0962 14.5579 76.9727 14.3079L75.1797 15.1941ZM76.3409 16.5211C76.8624 16.8573 77.4502 17.0156 78.0723 17.0156V15.0156C77.8011 15.0156 77.596 14.9506 77.4247 14.8402L76.3409 16.5211ZM78.0723 17.0156C78.5215 17.0156 78.9642 16.9229 79.3943 16.7579L78.678 14.8905C78.4427 14.9808 78.2428 15.0156 78.0723 15.0156V17.0156ZM79.401 16.7553C79.8369 16.5845 80.2337 16.3501 80.5835 16.0493L79.2798 14.5327C79.1101 14.6786 78.9098 14.7997 78.6713 14.8932L79.401 16.7553ZM79.0082 15.6748L79.4457 16.7275L81.2926 15.96L80.8551 14.9073L79.0082 15.6748ZM79.7631 15.5483C79.5804 15.6875 79.3247 15.8245 78.9736 15.944L79.6182 17.8373C80.1239 17.6651 80.5837 17.4375 80.9752 17.1392L79.7631 15.5483ZM78.9705 15.945C78.6417 16.0582 78.3346 16.1094 78.0449 16.1094V18.1094C78.5756 18.1094 79.1024 18.0147 79.6213 17.8362L78.9705 15.945ZM82.8164 17H81.8164V18H82.8164V17ZM82.8164 9.75391V8.75391H81.8164V9.75391H82.8164ZM83.9785 9.75391H84.9785V8.75391H83.9785V9.75391ZM83.9785 10.6426H82.9785V11.6426H83.9785V10.6426ZM84.252 10.6426L84.9784 11.3298L86.5744 9.64258H84.252V10.6426ZM83.7734 11.1484L82.8248 10.8322L84.4999 11.8356L83.7734 11.1484ZM84.6348 10.0684L84.0882 9.23091L84.0842 9.23359L84.6348 10.0684ZM88.5859 17V18H89.5859V17H88.5859ZM87.4102 17H86.4102V18H87.4102V17ZM86.9658 11.251L86.2051 11.9001L86.2098 11.9055L86.2145 11.9109L86.9658 11.251ZM84.8467 10.9707L85.3412 11.8399L85.3524 11.8334L84.8467 10.9707ZM84.2178 11.6133L83.3442 11.1264L83.3382 11.1375L84.2178 11.6133ZM83.9922 17V18H84.9922V17H83.9922ZM83.8164 17V9.75391H81.8164V17H83.8164ZM82.8164 10.7539H83.9785V8.75391H82.8164V10.7539ZM82.9785 9.75391V10.6426H84.9785V9.75391H82.9785ZM83.9785 11.6426H84.252V9.64258H83.9785V11.6426ZM83.5255 9.95538L83.047 10.4612L84.4999 11.8356L84.9784 11.3298L83.5255 9.95538ZM84.7221 11.4647C84.7891 11.2638 84.9217 11.077 85.1854 10.9031L84.0842 9.23359C83.4911 9.62479 83.0495 10.1581 82.8248 10.8322L84.7221 11.4647ZM85.1813 10.9058C85.4327 10.7417 85.7437 10.6445 86.1523 10.6445V8.64453C85.4035 8.64453 84.7027 8.8299 84.0882 9.23092L85.1813 10.9058ZM86.1523 10.6445C86.6569 10.6445 86.9612 10.7985 87.1823 11.0472L88.6771 9.71845C88.0231 8.98276 87.1426 8.64453 86.1523 8.64453V10.6445ZM87.1823 11.0472C87.4198 11.3144 87.5859 11.7136 87.5859 12.3516H89.5859C89.5859 11.3489 89.3145 10.4356 88.6771 9.71845L87.1823 11.0472ZM87.5859 12.3516V17H89.5859V12.3516H87.5859ZM88.5859 16H87.4102V18H88.5859V16ZM88.4102 17V12.5977H86.4102V17H88.4102ZM88.4102 12.5977C88.4102 11.8569 88.2107 11.1529 87.7171 10.591L86.2145 11.9109C86.3134 12.0235 86.4102 12.2174 86.4102 12.5977H88.4102ZM87.7265 10.6019C87.2159 10.0035 86.5159 9.73828 85.7559 9.73828V11.7383C86.0258 11.7383 86.1324 11.8148 86.2051 11.9001L87.7265 10.6019ZM85.7559 9.73828C85.2573 9.73828 84.7758 9.85307 84.341 10.108L85.3524 11.8334C85.4462 11.7784 85.5708 11.7383 85.7559 11.7383V9.73828ZM84.3522 10.1015C83.9214 10.3466 83.5839 10.6965 83.3443 11.1264L85.0913 12.1001C85.1615 11.9741 85.2433 11.8956 85.3412 11.8399L84.3522 10.1015ZM83.3382 11.1375C83.0946 11.5878 82.9922 12.0858 82.9922 12.5977H84.9922C84.9922 12.353 85.0402 12.1948 85.0973 12.0891L83.3382 11.1375ZM82.9922 12.5977V17H84.9922V12.5977H82.9922ZM83.9922 16H82.8164V18H83.9922V16ZM93.2959 16.8086L92.8323 17.6947L92.8404 17.6988L93.2959 16.8086ZM92.3662 15.9609L91.5164 16.4881L91.5212 16.4957L92.3662 15.9609ZM92.0312 7.42969V6.42969H91.0312V7.42969H92.0312ZM93.207 7.42969H94.207V6.42969H93.207V7.42969ZM93.6309 15.6191L92.9415 16.3436L92.9475 16.3492L92.9535 16.3548L93.6309 15.6191ZM95.5381 15.8379L95.9248 16.7601L95.932 16.757L95.5381 15.8379ZM96.2832 15.4004L97.2059 15.0149L96.6931 13.7873L95.6564 14.6212L96.2832 15.4004ZM96.7344 16.4805L97.2713 17.3241L97.9817 16.872L97.6571 16.095L96.7344 16.4805ZM95.7363 16.9385L95.4381 15.984L95.4346 15.9851L95.7363 16.9385ZM90.3359 10.8203H89.3359V11.8203H90.3359V10.8203ZM90.3359 9.75391V8.75391H89.3359V9.75391H90.3359ZM96.2832 9.75391H97.2832V8.75391H96.2832V9.75391ZM96.2832 10.8203V11.8203H97.2832V10.8203H96.2832ZM94.6289 16.1094C94.27 16.1094 93.9851 16.0379 93.7514 15.9183L92.8404 17.6988C93.3905 17.9803 93.9943 18.1094 94.6289 18.1094V16.1094ZM93.7595 15.9226C93.5172 15.7958 93.3413 15.6318 93.2112 15.4261L91.5212 16.4957C91.8468 17.0101 92.2908 17.4113 92.8323 17.6946L93.7595 15.9226ZM93.216 15.4338C93.1013 15.2489 93.0312 15.0207 93.0312 14.7168H91.0312C91.0312 15.3517 91.1845 15.953 91.5164 16.488L93.216 15.4338ZM93.0312 14.7168V7.42969H91.0312V14.7168H93.0312ZM92.0312 8.42969H93.207V6.42969H92.0312V8.42969ZM92.207 7.42969V14.5938H94.207V7.42969H92.207ZM92.207 14.5938C92.207 15.2629 92.447 15.873 92.9415 16.3436L94.3202 14.8947C94.2496 14.8275 94.207 14.754 94.207 14.5938H92.207ZM92.9535 16.3548C93.4376 16.8004 94.0352 17.0156 94.6836 17.0156V15.0156C94.5026 15.0156 94.3984 14.9665 94.3082 14.8834L92.9535 16.3548ZM94.6836 17.0156C95.1122 17.0156 95.5281 16.9264 95.9248 16.7601L95.1514 14.9157C94.9829 14.9863 94.8292 15.0156 94.6836 15.0156V17.0156ZM95.932 16.757C96.2896 16.6038 96.6191 16.4135 96.91 16.1796L95.6564 14.6212C95.528 14.7245 95.3608 14.8259 95.1442 14.9187L95.932 16.757ZM95.3605 15.7858L95.8116 16.8659L97.6571 16.095L97.2059 15.0149L95.3605 15.7858ZM96.1975 15.6368C95.9761 15.7777 95.7245 15.8945 95.4381 15.984L96.0346 17.893C96.4773 17.7546 96.8911 17.5661 97.2713 17.3241L96.1975 15.6368ZM95.4346 15.9851C95.1724 16.0681 94.905 16.1094 94.6289 16.1094V18.1094C95.1093 18.1094 95.5803 18.0367 96.038 17.8919L95.4346 15.9851ZM91.3359 10.8203V9.75391H89.3359V10.8203H91.3359ZM90.3359 10.7539H96.2832V8.75391H90.3359V10.7539ZM95.2832 9.75391V10.8203H97.2832V9.75391H95.2832ZM96.2832 9.82031H90.3359V11.8203H96.2832V9.82031ZM99.5439 16.8496L99.1105 17.7508L99.5439 16.8496ZM98.6895 16.1113L97.8502 16.6551L97.8537 16.6605L98.6895 16.1113ZM99.8174 12.9121L99.4224 11.9934L99.8174 12.9121ZM103.188 12.5977H104.188V11.5977H103.188V12.5977ZM103.188 13.541V14.541H104.188V13.541H103.188ZM100.713 13.6709L100.47 12.7008L100.467 12.7015L100.713 13.6709ZM99.8584 14.1084L99.1894 13.3651L99.182 13.3719L99.8584 14.1084ZM99.708 15.5713L98.8928 16.1505L98.9002 16.1608L99.708 15.5713ZM100.2 15.9609L99.794 16.8748L99.8015 16.878L100.2 15.9609ZM101.82 15.8994L102.203 16.8233L102.21 16.8206L101.82 15.8994ZM102.634 15.3115L101.875 14.6596L101.875 14.6607L102.634 15.3115ZM102.969 13.6094H103.969V13.5772L103.967 13.545L102.969 13.6094ZM102.941 13.1855H101.941V13.2178L101.943 13.2499L102.941 13.1855ZM102.914 11.9277L101.919 12.0248L101.919 12.0272L102.914 11.9277ZM102.75 11.374L101.847 11.8031L101.851 11.8122L101.856 11.8212L102.75 11.374ZM102.306 10.916L101.786 11.7702L101.793 11.7744L101.799 11.7784L102.306 10.916ZM100.699 10.8135L100.905 11.792L100.913 11.7903L100.922 11.7884L100.699 10.8135ZM99.291 11.3945L98.3676 11.7783L98.8475 12.9331L99.8685 12.2109L99.291 11.3945ZM98.8535 10.3418L98.3486 9.47861L97.595 9.91938L97.9301 10.7256L98.8535 10.3418ZM99.6602 9.97266L99.9937 10.9154L100.002 10.9124L99.6602 9.97266ZM100.59 9.71973L100.41 8.73608L100.407 8.73654L100.59 9.71973ZM103.064 10.0137L102.491 10.8329L102.496 10.8362L103.064 10.0137ZM103.837 11.0186L102.893 11.3503L102.898 11.3628L103.837 11.0186ZM104.151 15.6191L103.203 15.9354L103.206 15.9462L103.21 15.957L104.151 15.6191ZM104.5 15.9883L104.124 16.915L104.129 16.9168L104.5 15.9883ZM104.637 16.043L105.562 16.4225L105.945 15.4892L105.008 15.1145L104.637 16.043ZM104.199 17.1094L103.805 18.0285L104.739 18.4286L105.124 17.4889L104.199 17.1094ZM104.008 17.0273L104.402 16.1082L104.008 17.0273ZM103.078 15.9062L103.411 14.9633L102.078 14.4929V15.9062H103.078ZM103.311 15.9883V16.9883L103.643 15.0453L103.311 15.9883ZM102.859 15.9883L102.322 15.1446L99.4253 16.9883H102.859V15.9883ZM103.16 15.7969L104.057 16.2395L105.639 13.0339L102.623 14.9532L103.16 15.7969ZM102.251 16.7266L102.767 17.5832L102.769 17.5816L102.251 16.7266ZM100.754 16.1094C100.44 16.1094 100.187 16.0493 99.9774 15.9484L99.1105 17.7508C99.6209 17.9963 100.175 18.1094 100.754 18.1094V16.1094ZM99.9774 15.9484C99.773 15.8501 99.6304 15.7223 99.5252 15.5622L97.8537 16.6605C98.1678 17.1384 98.5949 17.5028 99.1105 17.7508L99.9774 15.9484ZM99.5287 15.5676C99.4408 15.432 99.375 15.2409 99.375 14.9492H97.375C97.375 15.5599 97.5188 16.1436 97.8502 16.6551L99.5287 15.5676ZM99.375 14.9492C99.375 14.7041 99.4378 14.5015 99.5625 14.3145L97.8984 13.2051C97.5492 13.7289 97.375 14.3193 97.375 14.9492H99.375ZM99.5625 14.3145C99.6687 14.1552 99.8594 13.9825 100.212 13.8308L99.4224 11.9934C98.8001 12.261 98.2662 12.6534 97.8984 13.2051L99.5625 14.3145ZM100.212 13.8308C100.534 13.6925 101.009 13.5977 101.684 13.5977V11.5977C100.845 11.5977 100.076 11.7124 99.4224 11.9934L100.212 13.8308ZM101.684 13.5977H103.188V11.5977H101.684V13.5977ZM102.188 12.5977V13.541H104.188V12.5977H102.188ZM103.188 12.541H101.766V14.541H103.188V12.541ZM101.766 12.541C101.328 12.541 100.896 12.5944 100.47 12.7008L100.955 14.641C101.223 14.5742 101.492 14.541 101.766 14.541V12.541ZM100.467 12.7015C99.9919 12.822 99.555 13.0361 99.1894 13.3651L100.527 14.8517C100.618 14.7705 100.75 14.693 100.958 14.6403L100.467 12.7015ZM99.182 13.3719C98.7166 13.7993 98.5234 14.3665 98.5234 14.9492H100.523C100.523 14.876 100.535 14.8459 100.536 14.8425C100.537 14.8405 100.537 14.8418 100.535 14.8443C100.533 14.8468 100.532 14.8471 100.535 14.8449L99.182 13.3719ZM98.5234 14.9492C98.5234 15.3688 98.6335 15.7855 98.8928 16.1505L100.523 14.9921C100.524 14.9938 100.526 14.9961 100.527 14.9986C100.528 15.0011 100.529 15.0023 100.528 15.0014C100.528 15.0002 100.523 14.9848 100.523 14.9492H98.5234ZM98.9002 16.1608C99.1342 16.4814 99.4414 16.718 99.7941 16.8747L100.606 15.0471C100.549 15.0216 100.528 14.9984 100.516 14.9818L98.9002 16.1608ZM99.8015 16.878C100.149 17.0289 100.516 17.0977 100.891 17.0977V15.0977C100.764 15.0977 100.671 15.0752 100.599 15.0439L99.8015 16.878ZM100.891 17.0977C101.341 17.0977 101.781 16.9983 102.203 16.8233L101.438 14.9756C101.222 15.0648 101.042 15.0977 100.891 15.0977V17.0977ZM102.21 16.8206C102.669 16.6264 103.069 16.3404 103.393 15.9623L101.875 14.6607C101.761 14.7931 101.619 14.899 101.431 14.9783L102.21 16.8206ZM103.392 15.9634C103.786 15.5052 103.969 14.9508 103.969 14.3613H101.969C101.969 14.5192 101.928 14.5983 101.875 14.6596L103.392 15.9634ZM103.969 14.3613V13.6094H101.969V14.3613H103.969ZM103.967 13.545L103.939 13.1212L101.943 13.2499L101.971 13.6738L103.967 13.545ZM103.941 13.1855V12.3789H101.941V13.1855H103.941ZM103.941 12.3789C103.941 12.2144 103.929 12.0279 103.909 11.8282L101.919 12.0272C101.936 12.1922 101.941 12.3064 101.941 12.3789H103.941ZM103.909 11.8306C103.878 11.5118 103.786 11.2092 103.644 10.9268L101.856 11.8212C101.897 11.9034 101.913 11.9699 101.919 12.0248L103.909 11.8306ZM103.653 10.945C103.464 10.5475 103.158 10.257 102.812 10.0536L101.799 11.7784C101.837 11.8007 101.853 11.8159 101.856 11.8191C101.858 11.8213 101.853 11.8158 101.847 11.8031L103.653 10.945ZM102.826 10.0618C102.396 9.80049 101.894 9.72461 101.424 9.72461V11.7246C101.559 11.7246 101.654 11.7362 101.716 11.7497C101.778 11.7631 101.795 11.7756 101.786 11.7702L102.826 10.0618ZM101.424 9.72461C101.113 9.72461 100.796 9.76572 100.477 9.83851L100.922 11.7884C101.122 11.7427 101.288 11.7246 101.424 11.7246V9.72461ZM100.493 9.83493C100.175 9.90195 99.8646 9.99699 99.5631 10.1198L100.318 11.972C100.508 11.8943 100.704 11.8344 100.905 11.792L100.493 9.83493ZM99.5631 10.1198C99.2574 10.2444 98.9718 10.3955 98.7136 10.5781L99.8685 12.2109C99.984 12.1293 100.131 12.0479 100.318 11.972L99.5631 10.1198ZM100.214 11.0108L99.7769 9.95803L97.9301 10.7256L98.3676 11.7783L100.214 11.0108ZM99.3584 11.205C99.5393 11.0992 99.7499 11.0017 99.9937 10.9154L99.3266 9.02993C98.978 9.15327 98.6508 9.30187 98.3486 9.47861L99.3584 11.205ZM100.002 10.9124C100.25 10.8222 100.507 10.7522 100.772 10.7029L100.407 8.73654C100.035 8.8057 99.6717 8.90441 99.3184 9.03286L100.002 10.9124ZM100.77 10.7034C101.039 10.6542 101.293 10.6309 101.533 10.6309V8.63086C101.163 8.63086 100.788 8.66679 100.41 8.73608L100.77 10.7034ZM101.533 10.6309C102.077 10.6309 102.357 10.7391 102.491 10.8329L103.638 9.19444C103.043 8.77783 102.302 8.63086 101.533 8.63086V10.6309ZM102.496 10.8362C102.695 10.9741 102.819 11.139 102.894 11.3503L104.78 10.6868C104.563 10.0687 104.172 9.56362 103.633 9.19111L102.496 10.8362ZM102.898 11.3628C103.004 11.6527 103.062 11.9793 103.062 12.3516H105.062C105.062 11.7668 104.97 11.2048 104.776 10.6743L102.898 11.3628ZM103.062 12.3516V14.8945H105.062V12.3516H103.062ZM103.062 14.8945C103.062 15.2486 103.095 15.6119 103.203 15.9354L105.1 15.3029C105.089 15.271 105.062 15.1511 105.062 14.8945H103.062ZM103.21 15.957C103.366 16.391 103.681 16.7352 104.124 16.915L104.876 15.0615C104.914 15.0772 104.966 15.1076 105.013 15.1581C105.06 15.2078 105.083 15.2554 105.093 15.2813L103.21 15.957ZM104.129 16.9168L104.265 16.9714L105.008 15.1145L104.871 15.0598L104.129 16.9168ZM103.712 15.6634L103.274 16.7298L105.124 17.4889L105.562 16.4225L103.712 15.6634ZM104.593 16.1902L104.402 16.1082L103.614 17.9465L103.805 18.0285L104.593 16.1902ZM104.402 16.1082C104.29 16.0604 104.197 15.9922 104.113 15.8939L102.59 17.1901C102.871 17.5202 103.215 17.7755 103.614 17.9465L104.402 16.1082ZM104.113 15.8939C104.073 15.8468 104.064 15.824 104.065 15.8273C104.066 15.8295 104.069 15.838 104.073 15.8526C104.076 15.8673 104.078 15.8856 104.078 15.9062H102.078C102.078 16.424 102.307 16.8573 102.59 17.1901L104.113 15.8939ZM102.745 16.8492L102.978 16.9313L103.643 15.0453L103.411 14.9633L102.745 16.8492ZM103.311 14.9883H102.859V16.9883H103.311V14.9883ZM103.396 16.8319L103.697 16.6405L102.623 14.9532L102.322 15.1446L103.396 16.8319ZM102.263 15.3542C102.189 15.5058 102.038 15.686 101.732 15.8715L102.769 17.5816C103.32 17.2476 103.776 16.808 104.057 16.2395L102.263 15.3542ZM101.735 15.8699C101.491 16.0171 101.176 16.1094 100.754 16.1094V18.1094C101.48 18.1094 102.164 17.9464 102.767 17.5832L101.735 15.8699ZM106.906 17H105.906V18H106.906V17ZM106.906 9.75391V8.75391H105.906V9.75391H106.906ZM108.082 9.75391H109.082V8.75391H108.082V9.75391ZM108.082 10.8477H107.082V11.8477H108.082V10.8477ZM108.314 10.8477L109.128 11.4289L110.258 9.84766H108.314V10.8477ZM107.904 11.4219L106.933 11.1855L108.718 12.0031L107.904 11.4219ZM109.162 9.87695L108.72 8.97993L108.715 8.98253L109.162 9.87695ZM112.566 11.3125L112.948 12.2369L113.845 11.8668L113.502 10.9589L112.566 11.3125ZM111.473 11.7637L110.552 12.1529L110.937 13.0662L111.854 12.6881L111.473 11.7637ZM110.857 11.0254L110.322 11.8703L110.333 11.8766L110.857 11.0254ZM108.998 11.0391L109.543 11.8776L109.553 11.8711L108.998 11.0391ZM108.082 17V18H109.082V17H108.082ZM107.906 17V9.75391H105.906V17H107.906ZM106.906 10.7539H108.082V8.75391H106.906V10.7539ZM107.082 9.75391V10.8477H109.082V9.75391H107.082ZM108.082 11.8477H108.314V9.84766H108.082V11.8477ZM107.501 10.2664L107.091 10.8406L108.718 12.0031L109.128 11.4289L107.501 10.2664ZM108.876 11.6582C108.922 11.4699 109.005 11.3043 109.132 11.1516L107.593 9.87379C107.273 10.2589 107.051 10.6994 106.933 11.1855L108.876 11.6582ZM109.132 11.1516C109.267 10.9883 109.424 10.8638 109.609 10.7714L108.715 8.98253C108.28 9.19998 107.904 9.49932 107.593 9.87379L109.132 11.1516ZM109.604 10.774C109.781 10.6868 109.962 10.6445 110.16 10.6445V8.64453C109.656 8.64453 109.172 8.75717 108.72 8.97994L109.604 10.774ZM110.16 10.6445C110.429 10.6445 110.646 10.6879 110.823 10.7585L111.561 8.89969C111.119 8.72416 110.648 8.64453 110.16 8.64453V10.6445ZM110.823 10.7585C110.996 10.8269 111.145 10.9278 111.279 11.0694L112.733 9.69619C112.402 9.34568 112.009 9.07742 111.561 8.89969L110.823 10.7585ZM111.279 11.0694C111.406 11.2037 111.528 11.3942 111.631 11.6661L113.502 10.9589C113.322 10.4834 113.071 10.0541 112.733 9.69619L111.279 11.0694ZM112.185 10.3881L111.091 10.8392L111.854 12.6881L112.948 12.2369L112.185 10.3881ZM112.394 11.3745C112.184 10.8783 111.849 10.4622 111.382 10.1742L110.333 11.8766C110.412 11.9259 110.488 12.0019 110.552 12.1529L112.394 11.3745ZM111.392 10.1806C110.932 9.88875 110.41 9.76562 109.873 9.76562V11.7656C110.102 11.7656 110.236 11.8157 110.322 11.8702L111.392 10.1806ZM109.873 9.76562C109.354 9.76562 108.871 9.92217 108.443 10.207L109.553 11.8711C109.672 11.7914 109.773 11.7656 109.873 11.7656V9.76562ZM108.453 10.2006C108.022 10.4808 107.69 10.8637 107.451 11.3169L109.219 12.2515C109.317 12.0667 109.427 11.9528 109.543 11.8775L108.453 10.2006ZM107.451 11.3169C107.195 11.8001 107.082 12.3317 107.082 12.8848H109.082C109.082 12.6084 109.137 12.4063 109.219 12.2515L107.451 11.3169ZM107.082 12.8848V17H109.082V12.8848H107.082ZM108.082 16H106.906V18H108.082V16ZM116.969 17H115.969V18H116.969V17ZM116.969 9.75391V8.75391H115.969V9.75391H116.969ZM118.145 9.75391H119.145V8.75391H118.145V9.75391ZM118.145 17V18H119.145V17H118.145ZM114.727 10.8203H113.727V11.8203H114.727V10.8203ZM114.727 9.75391V8.75391H113.727V9.75391H114.727ZM118.145 9.75391H119.145V8.75391H118.145V9.75391ZM118.145 10.8203V11.8203H119.145V10.8203H118.145ZM116.948 8.33887L116.232 9.03648L116.241 9.04604L116.251 9.05534L116.948 8.33887ZM116.948 7.07422L116.241 6.36711L116.948 7.07422ZM118.213 7.07422L117.496 7.77184L117.506 7.78139L117.515 7.79069L118.213 7.07422ZM118.213 8.33887L117.506 7.63176L118.213 8.33887ZM117.969 17V9.75391H115.969V17H117.969ZM116.969 10.7539H118.145V8.75391H116.969V10.7539ZM117.145 9.75391V17H119.145V9.75391H117.145ZM118.145 16H116.969V18H118.145V16ZM115.727 10.8203V9.75391H113.727V10.8203H115.727ZM114.727 10.7539H118.145V8.75391H114.727V10.7539ZM117.145 9.75391V10.8203H119.145V9.75391H117.145ZM118.145 9.82031H114.727V11.8203H118.145V9.82031ZM117.584 7.5918C117.573 7.5918 117.584 7.59033 117.607 7.5994C117.617 7.60355 117.627 7.60859 117.634 7.61369C117.638 7.61613 117.641 7.61827 117.643 7.61989C117.645 7.6215 117.646 7.62243 117.646 7.6224L116.251 9.05534C116.618 9.4131 117.083 9.5918 117.584 9.5918V7.5918ZM117.665 7.64125C117.665 7.64122 117.666 7.64217 117.667 7.64417C117.669 7.64617 117.671 7.64903 117.673 7.65274C117.679 7.6605 117.684 7.66996 117.688 7.68038C117.697 7.70318 117.695 7.71442 117.695 7.70312H115.695C115.695 8.20366 115.874 8.66905 116.232 9.03648L117.665 7.64125ZM117.695 7.70312C117.695 7.69168 117.697 7.70493 117.686 7.73104C117.681 7.74315 117.675 7.7545 117.669 7.76423C117.662 7.77385 117.657 7.77946 117.655 7.78133L116.241 6.36711C115.875 6.73367 115.695 7.20234 115.695 7.70312H117.695ZM117.655 7.78133C117.656 7.78086 117.652 7.78437 117.645 7.78959C117.637 7.79491 117.627 7.80043 117.615 7.8051C117.59 7.81534 117.576 7.81445 117.584 7.81445V5.81445C117.075 5.81445 116.607 6.00153 116.241 6.36711L117.655 7.78133ZM117.584 7.81445C117.592 7.81445 117.576 7.81538 117.547 7.80366C117.534 7.79824 117.522 7.79165 117.513 7.7849C117.503 7.77825 117.498 7.77311 117.496 7.77184L118.929 6.3766C118.565 6.00222 118.093 5.81445 117.584 5.81445V7.81445ZM117.515 7.79069C117.514 7.78945 117.509 7.78417 117.502 7.77448C117.495 7.76466 117.489 7.75279 117.483 7.73967C117.472 7.71129 117.473 7.69499 117.473 7.70312H119.473C119.473 7.19383 119.285 6.72228 118.911 6.35775L117.515 7.79069ZM117.473 7.70312C117.473 7.71111 117.472 7.69686 117.482 7.6718C117.487 7.66038 117.492 7.65038 117.498 7.6425C117.503 7.63476 117.506 7.63129 117.506 7.63176L118.92 9.04597C119.286 8.68039 119.473 8.21203 119.473 7.70312H117.473ZM117.506 7.63176C117.508 7.62989 117.513 7.62468 117.523 7.61824C117.533 7.61174 117.544 7.60566 117.556 7.60078C117.582 7.59029 117.595 7.5918 117.584 7.5918V9.5918C118.085 9.5918 118.553 9.41253 118.92 9.04597L117.506 7.63176ZM123.381 16.6377L122.832 17.4734L122.835 17.4758L123.381 16.6377ZM122.26 15.3252L121.355 15.7517L121.358 15.7577L122.26 15.3252ZM122.26 11.4287L121.357 10.9991L121.355 11.0022L122.26 11.4287ZM123.381 10.1094L123.93 10.9451L123.932 10.9438L123.381 10.1094ZM126.737 10.1094L126.183 10.9415L126.192 10.9475L126.737 10.1094ZM127.858 11.4287L126.953 11.8524L126.957 11.8612L127.858 11.4287ZM127.858 15.3252L126.957 14.8927L126.954 14.8987L127.858 15.3252ZM126.737 16.6377L126.192 15.7996L126.188 15.802L126.737 16.6377ZM126.143 15.6943L126.723 16.5089L126.725 16.5072L126.143 15.6943ZM126.84 14.7783L125.916 14.396L125.914 14.4014L126.84 14.7783ZM126.84 11.9756L125.912 12.3488L125.916 12.3579L126.84 11.9756ZM126.143 11.0527L125.554 11.8615L125.56 11.8656L126.143 11.0527ZM123.976 11.0527L123.393 10.2398L123.387 10.244L123.976 11.0527ZM123.278 11.9756L122.354 11.5932L122.351 11.6024L123.278 11.9756ZM123.278 14.7783L122.35 15.1516L122.356 15.1645L123.278 14.7783ZM123.976 15.6943L123.387 16.5031L123.394 16.5081L123.401 16.513L123.976 15.6943ZM125.062 16.1094C124.597 16.1094 124.23 15.9973 123.926 15.7996L122.835 17.4758C123.498 17.907 124.252 18.1094 125.062 18.1094V16.1094ZM123.93 15.802C123.616 15.5959 123.359 15.3039 123.161 14.8927L121.358 15.7577C121.699 16.4676 122.188 17.0506 122.832 17.4734L123.93 15.802ZM123.164 14.8987C122.974 14.4946 122.863 13.9956 122.863 13.377H120.863C120.863 14.2348 121.017 15.0347 121.355 15.7517L123.164 14.8987ZM122.863 13.377C122.863 12.7583 122.974 12.2593 123.164 11.8552L121.355 11.0022C121.017 11.7192 120.863 12.5191 120.863 13.377H122.863ZM123.163 11.8584C123.361 11.4426 123.618 11.1499 123.93 10.9451L122.832 9.27367C122.186 9.6978 121.697 10.2847 121.357 10.9991L123.163 11.8584ZM123.932 10.9438C124.235 10.7437 124.6 10.6309 125.062 10.6309V8.63086C124.249 8.63086 123.493 8.837 122.83 9.27491L123.932 10.9438ZM125.062 10.6309C125.526 10.6309 125.886 10.7437 126.183 10.9414L127.292 9.27732C126.631 8.83698 125.876 8.63086 125.062 8.63086V10.6309ZM126.192 10.9475C126.506 11.1517 126.761 11.4419 126.953 11.8524L128.764 11.005C128.428 10.2853 127.935 9.69593 127.283 9.27129L126.192 10.9475ZM126.957 11.8612C127.15 12.2638 127.262 12.7606 127.262 13.377H129.262C129.262 12.5168 129.105 11.7148 128.76 10.9962L126.957 11.8612ZM127.262 13.377C127.262 13.9933 127.15 14.4901 126.957 14.8927L128.76 15.7577C129.105 15.0392 129.262 14.2371 129.262 13.377H127.262ZM126.954 14.8987C126.763 15.3045 126.508 15.594 126.192 15.7996L127.283 17.4758C127.933 17.0525 128.426 16.467 128.763 15.7517L126.954 14.8987ZM126.188 15.802C125.891 15.9972 125.528 16.1094 125.062 16.1094V18.1094C125.873 18.1094 126.627 17.9071 127.286 17.4734L126.188 15.802ZM125.062 17.0156C125.66 17.0156 126.23 16.8597 126.723 16.5089L125.563 14.8798C125.453 14.9574 125.303 15.0156 125.062 15.0156V17.0156ZM126.725 16.5072C127.203 16.1651 127.545 15.6993 127.766 15.1553L125.914 14.4014C125.816 14.6412 125.693 14.7861 125.56 14.8814L126.725 16.5072ZM127.764 15.1607C127.989 14.6165 128.086 14.0139 128.086 13.377H126.086C126.086 13.8156 126.019 14.1472 125.916 14.396L127.764 15.1607ZM128.086 13.377C128.086 12.7401 127.989 12.1374 127.764 11.5932L125.916 12.3579C126.019 12.6067 126.086 12.9383 126.086 13.377H128.086ZM127.768 11.6024C127.547 11.0544 127.205 10.584 126.725 10.2398L125.56 11.8656C125.69 11.959 125.814 12.1038 125.912 12.3488L127.768 11.6024ZM126.731 10.244C126.238 9.88538 125.665 9.72461 125.062 9.72461V11.7246C125.299 11.7246 125.446 11.7826 125.554 11.8615L126.731 10.244ZM125.062 9.72461C124.46 9.72461 123.888 9.88541 123.393 10.2398L124.558 11.8656C124.674 11.7826 124.827 11.7246 125.062 11.7246V9.72461ZM123.387 10.244C122.916 10.587 122.578 11.0531 122.354 11.5932L124.202 12.3579C124.307 12.1051 124.434 11.956 124.564 11.8615L123.387 10.244ZM122.351 11.6024C122.133 12.1438 122.039 12.7431 122.039 13.377H124.039C124.039 12.9353 124.105 12.6004 124.206 12.3488L122.351 11.6024ZM122.039 13.377C122.039 14.0108 122.133 14.6101 122.351 15.1515L124.206 14.4051C124.105 14.1536 124.039 13.8186 124.039 13.377H122.039ZM122.356 15.1645C122.58 15.7006 122.919 16.1621 123.387 16.5031L124.564 14.8856C124.431 14.7891 124.304 14.6398 124.201 14.3922L122.356 15.1645ZM123.401 16.513C123.895 16.8596 124.464 17.0156 125.062 17.0156V15.0156C124.822 15.0156 124.666 14.9575 124.55 14.8757L123.401 16.513Z" fill="#101010" mask="url(#path-6-outside-1_129_494)"/>
</svg>
